<svg width="684" height="130" viewBox="0 0 684 130" fill="none" xmlns="http://www.w3.org/2000/svg">
<path d="M0 38C0 17.0132 17.0132 0 38 0L63.05 0L92 0C112.987 0 130 17.0132 130 38V92C130 112.987 112.987 130 92 130H38C17.0132 130 0 112.987 0 92L0 38Z" fill="#E50914"/>
<path d="M69.1346 38.52C72.4946 38.52 75.5846 38.94 78.4046 39.78C81.2846 40.56 84.1946 41.82 87.1346 43.56L89.2046 41.85C90.6446 40.71 91.8146 39.93 92.7146 39.51C93.6746 39.09 94.7546 38.88 95.9546 38.88C97.3946 38.88 98.5346 39.21 99.3746 39.87C100.215 40.47 100.635 41.37 100.635 42.57C100.635 43.05 100.545 43.56 100.365 44.1L96.5846 56.52C96.1646 57.96 95.6246 58.98 94.9646 59.58C94.3646 60.18 93.4346 60.48 92.1746 60.48C90.8546 60.48 89.6846 60.09 88.6646 59.31C87.7046 58.47 86.1746 56.79 84.0746 54.27C81.9746 51.87 80.0546 50.19 78.3146 49.23C76.6346 48.21 74.8946 47.7 73.0946 47.7C71.7746 47.7 70.6646 48.15 69.7646 49.05C68.8646 49.89 68.4146 50.94 68.4146 52.2C68.4146 53.64 69.1346 54.99 70.5746 56.25C72.0146 57.45 74.2646 58.98 77.3246 60.84C80.4446 62.7 83.0246 64.38 85.0646 65.88C87.1046 67.38 88.8446 69.24 90.2846 71.46C91.7246 73.68 92.4446 76.23 92.4446 79.11C92.4446 80.97 92.1446 82.83 91.5446 84.69C90.1046 89.49 87.3146 93.15 83.1746 95.67C79.0346 98.13 74.2046 99.36 68.6846 99.36C64.5446 99.36 61.0646 98.88 58.2446 97.92C55.4246 96.96 52.5446 95.34 49.6046 93.06L46.3646 95.76C44.8646 97.02 43.6346 97.89 42.6746 98.37C41.7146 98.79 40.6346 99 39.4346 99C38.0546 99 36.9446 98.67 36.1046 98.01C35.3246 97.35 34.9346 96.45 34.9346 95.31C34.9346 94.71 35.0546 94.08 35.2946 93.42L39.7046 80.01C40.1846 78.45 40.8446 77.34 41.6846 76.68C42.5246 76.02 43.6046 75.69 44.9246 75.69C46.3046 75.69 47.5346 76.17 48.6146 77.13C49.7546 78.09 51.2246 79.83 53.0246 82.35C54.9446 85.11 56.7146 87.03 58.3346 88.11C60.0146 89.19 61.9946 89.73 64.2746 89.73C65.8946 89.73 67.1246 89.49 67.9646 89.01C68.8646 88.47 69.4946 87.63 69.8546 86.49C69.9746 86.19 70.0346 85.74 70.0346 85.14C70.0346 83.7 69.3446 82.38 67.9646 81.18C66.5846 79.98 64.4546 78.54 61.5746 76.86C58.5146 75 56.0246 73.35 54.1046 71.91C52.1846 70.41 50.5046 68.55 49.0646 66.33C47.6846 64.11 46.9946 61.5 46.9946 58.5C46.9946 56.4 47.3246 54.33 47.9846 52.29C49.2446 48.15 51.8246 44.82 55.7246 42.3C59.6246 39.78 64.0946 38.52 69.1346 38.52Z" fill="white"/>
<path d="M175.789 98.64C167.949 98.64 161.229 98.2133 155.629 97.36V87.84C162.189 88.48 167.789 88.8 172.429 88.8C175.149 88.8 177.256 88.6933 178.749 88.48C180.296 88.2133 181.442 87.7867 182.189 87.2C182.882 86.6667 183.309 86.0267 183.469 85.28C183.682 84.5333 183.789 83.4667 183.789 82.08C183.789 80.5333 183.682 79.4133 183.469 78.72C183.256 77.9733 182.829 77.44 182.189 77.12C181.549 76.7467 180.482 76.48 178.989 76.32L167.229 74.96C163.709 74.48 160.989 73.5733 159.069 72.24C157.149 70.8533 155.816 69.0933 155.069 66.96C154.376 64.7733 154.029 62.08 154.029 58.88C154.029 54.1867 154.882 50.64 156.589 48.24C158.296 45.7867 160.589 44.1867 163.469 43.44C166.349 42.6933 170.056 42.32 174.589 42.32C181.576 42.32 187.549 42.8533 192.509 43.92V53.2C187.336 52.5067 182.136 52.16 176.909 52.16C172.109 52.16 168.936 52.56 167.389 53.36C166.536 53.7867 166.002 54.3467 165.789 55.04C165.576 55.7333 165.469 56.7733 165.469 58.16C165.469 59.76 165.576 60.9067 165.789 61.6C166.002 62.2933 166.456 62.8 167.149 63.12C167.896 63.3867 169.122 63.6267 170.829 63.84L183.469 65.36C185.922 65.6267 187.949 66.1333 189.549 66.88C191.149 67.5733 192.402 68.7467 193.309 70.4C194.589 72.6933 195.229 76.24 195.229 81.04C195.229 86.1067 194.429 89.92 192.829 92.48C191.229 95.04 189.069 96.72 186.349 97.52C183.682 98.2667 180.162 98.64 175.789 98.64ZM249.075 42.96V73.36C249.075 80.6667 248.595 86.0267 247.635 89.44C246.728 92.8 244.781 95.1733 241.795 96.56C238.808 97.9467 234.008 98.64 227.395 98.64C220.781 98.64 215.981 97.9467 212.995 96.56C210.008 95.1733 208.035 92.8 207.075 89.44C206.115 86.0267 205.635 80.6667 205.635 73.36V42.96H216.995V76.24C216.995 80.3467 217.181 83.2 217.555 84.8C217.928 86.4 218.808 87.4933 220.195 88.08C221.581 88.6667 223.981 88.96 227.395 88.96C230.861 88.96 233.261 88.6667 234.595 88.08C235.981 87.4933 236.835 86.4 237.155 84.8C237.528 83.2 237.715 80.3467 237.715 76.24V42.96H249.075ZM261.898 42.96H287.258C291.844 42.96 295.364 43.68 297.818 45.12C300.271 46.56 301.924 48.5867 302.778 51.2C303.631 53.8133 304.058 57.1733 304.058 61.28C304.058 65.2267 303.631 68.5067 302.778 71.12C301.978 73.7333 300.324 75.8133 297.818 77.36C295.311 78.9067 291.711 79.68 287.018 79.68H273.258V98H261.898V42.96ZM282.378 69.84C285.578 69.84 287.871 69.6267 289.258 69.2C290.644 68.7733 291.551 68 291.978 66.88C292.404 65.7067 292.618 63.84 292.618 61.28C292.618 58.72 292.404 56.88 291.978 55.76C291.604 54.64 290.724 53.8667 289.338 53.44C288.004 53.0133 285.738 52.8 282.538 52.8H273.258V69.84H282.378ZM313.929 98V42.96H351.769V52.8H325.289V65.28H348.009V75.12H325.289V88.16H351.769V98H313.929ZM394.753 98L386.673 78.08H374.273V98H362.913V42.96H388.833C393.58 42.96 397.18 43.68 399.633 45.12C402.14 46.5067 403.793 48.4533 404.593 50.96C405.447 53.4133 405.873 56.5867 405.873 60.48C405.873 69.1733 403.26 74.5333 398.033 76.56L406.833 98H394.753ZM384.273 68.24C387.367 68.24 389.607 68.0267 390.993 67.6C392.433 67.1733 393.34 66.4533 393.713 65.44C394.14 64.3733 394.353 62.72 394.353 60.48C394.353 58.1867 394.14 56.5333 393.713 55.52C393.34 54.5067 392.46 53.8133 391.073 53.44C389.74 53.0133 387.5 52.8 384.353 52.8H374.273V68.24H384.273ZM436.898 42.96H463.778C469.111 42.96 473.031 44.1333 475.538 46.48C478.044 48.7733 479.298 52.2133 479.298 56.8C479.298 60.64 478.551 63.5733 477.058 65.6C475.564 67.6267 473.164 69.0133 469.858 69.76V70.08C473.484 70.8267 476.044 72.2133 477.538 74.24C479.084 76.2667 479.858 79.3067 479.858 83.36C479.858 88.1067 478.631 91.7333 476.178 94.24C473.778 96.7467 469.644 98 463.778 98H436.898V42.96ZM459.698 65.28C462.791 65.28 464.898 64.8533 466.018 64C467.191 63.0933 467.778 61.4667 467.778 59.12C467.778 57.36 467.564 56.0533 467.138 55.2C466.711 54.2933 465.938 53.68 464.818 53.36C463.698 52.9867 461.991 52.8 459.698 52.8H448.258V65.28H459.698ZM460.098 88.16C462.338 88.16 464.044 87.9733 465.218 87.6C466.391 87.2267 467.191 86.5867 467.618 85.68C468.098 84.7733 468.338 83.44 468.338 81.68C468.338 79.92 468.098 78.5867 467.618 77.68C467.138 76.72 466.311 76.0533 465.138 75.68C464.018 75.3067 462.338 75.12 460.098 75.12H448.258V88.16H460.098ZM512.797 98.64C505.277 98.64 499.917 97.84 496.717 96.24C493.517 94.64 491.49 92.0267 490.637 88.4C489.837 84.7733 489.437 78.8 489.437 70.48C489.437 62.16 489.837 56.1867 490.637 52.56C491.49 48.9333 493.517 46.32 496.717 44.72C499.917 43.12 505.277 42.32 512.797 42.32C520.317 42.32 525.677 43.12 528.877 44.72C532.13 46.32 534.157 48.9333 534.957 52.56C535.81 56.1867 536.237 62.16 536.237 70.48C536.237 78.8 535.81 84.7733 534.957 88.4C534.157 92.0267 532.13 94.64 528.877 96.24C525.677 97.84 520.317 98.64 512.797 98.64ZM512.797 88.8C517.01 88.8 519.837 88.5067 521.277 87.92C522.77 87.3333 523.703 85.92 524.077 83.68C524.503 81.3867 524.717 76.9867 524.717 70.48C524.717 63.9733 524.503 59.6 524.077 57.36C523.703 55.0667 522.77 53.6267 521.277 53.04C519.837 52.4533 517.01 52.16 512.797 52.16C508.583 52.16 505.757 52.4533 504.317 53.04C502.877 53.6267 501.943 55.0667 501.517 57.36C501.09 59.6533 500.877 64.0267 500.877 70.48C500.877 76.9333 501.09 81.3067 501.517 83.6C501.943 85.8933 502.877 87.3333 504.317 87.92C505.757 88.5067 508.583 88.8 512.797 88.8ZM569.515 98.64C561.995 98.64 556.635 97.84 553.435 96.24C550.235 94.64 548.209 92.0267 547.355 88.4C546.555 84.7733 546.155 78.8 546.155 70.48C546.155 62.16 546.555 56.1867 547.355 52.56C548.209 48.9333 550.235 46.32 553.435 44.72C556.635 43.12 561.995 42.32 569.515 42.32C577.035 42.32 582.395 43.12 585.595 44.72C588.849 46.32 590.875 48.9333 591.675 52.56C592.529 56.1867 592.955 62.16 592.955 70.48C592.955 78.8 592.529 84.7733 591.675 88.4C590.875 92.0267 588.849 94.64 585.595 96.24C582.395 97.84 577.035 98.64 569.515 98.64ZM569.515 88.8C573.729 88.8 576.555 88.5067 577.995 87.92C579.489 87.3333 580.422 85.92 580.795 83.68C581.222 81.3867 581.435 76.9867 581.435 70.48C581.435 63.9733 581.222 59.6 580.795 57.36C580.422 55.0667 579.489 53.6267 577.995 53.04C576.555 52.4533 573.729 52.16 569.515 52.16C565.302 52.16 562.475 52.4533 561.035 53.04C559.595 53.6267 558.662 55.0667 558.235 57.36C557.809 59.6533 557.595 64.0267 557.595 70.48C557.595 76.9333 557.809 81.3067 558.235 83.6C558.662 85.8933 559.595 87.3333 561.035 87.92C562.475 88.5067 565.302 88.8 569.515 88.8ZM638.154 98L621.434 74.88H615.914V98H604.554V42.96H615.914V65.04H621.434L638.474 42.96H651.034L630.554 69.2L651.274 98H638.154Z" fill="#E50914"/>
</svg>
